<svg xmlns="http://www.w3.org/2000/svg" viewBox="0 0 360 360" role="img" aria-labelledby="title desc">
  <title id="title">Dickbutt</title>
  <desc id="desc">A simple cartoon illustration of the dickbutt meme.</desc>
  <g fill="#f4b6a8" stroke="#101828" stroke-linecap="round" stroke-linejoin="round" stroke-width="8">
    <path d="M168 103c0-24 19-43 43-43s43 19 43 43c0 17-9 31-23 38v42c0 13-11 24-24 24h-12c-15 0-27 12-27 27v20" />
    <circle cx="193" cy="103" r="43" />
    <circle cx="182" cy="98" r="5" fill="#101828" stroke="none" />
    <path d="M203 118c7 6 17 6 24 0" fill="none" />
    <path d="M111 208c0-42 34-76 76-76h9c42 0 76 34 76 76v22c0 23-19 42-42 42h-77c-23 0-42-19-42-42z" />
    <path d="M180 160c-31 0-56 25-56 56v12c0 25 20 45 45 45h-16c-23 0-42-19-42-42v-23c0-42 34-76 76-76z" opacity=".3" />
    <path d="M191 189v74" fill="none" />
    <path d="M233 225c30-10 63 9 63 43 0 28-20 47-42 47-19 0-34-14-34-33 0-17 14-30 31-30" />
    <circle cx="217" cy="251" r="19" />
    <circle cx="245" cy="257" r="19" />
    <path d="M147 273l-18 46" fill="none" />
    <path d="M224 273l18 46" fill="none" />
    <path d="M112 204l-27 19" fill="none" />
    <path d="M272 204l27 19" fill="none" />
  </g>
</svg>
